<svg xmlns="http://www.w3.org/2000/svg" width="69.289" height="77.832" viewBox="0 0 69.289 77.832">
  <g id="Layer_1" data-name="Layer 1" transform="translate(-363.65 -357.34)" opacity="0.04">
    <path id="Path_32" data-name="Path 32" d="M365.937,750.608l1.126-12.5h25.853l-1.126,12.5-.323,3.708-.382,4.382a9.191,9.191,0,0,1-5.2,7.37l-14.825,7.1-6.872,3.3-.538.258.024-.258.452-5.17Z" transform="translate(0 -341.551)" fill="#e6e6e6"/>
    <path id="Path_33" data-name="Path 33" d="M458.894,383.381c-1.294,13.71-13.124,24.823-26.712,25.629H400.44a7.725,7.725,0,0,1-7.7-8.4l.051-.581.48-5.47a7.725,7.725,0,0,1,7.7-7.051h18.391l-.755,8.624,18.7-17.2.046-.042H403.636a8.24,8.24,0,0,1-8.208-8.961l.381-4.352.721-8.24h38.784a23.2,23.2,0,0,1,23.405,19.754q.141.905.213,1.836A25.812,25.812,0,0,1,458.894,383.381Z" transform="translate(-26.072)" fill="#fff"/>
  </g>
</svg>
