<svg xmlns="http://www.w3.org/2000/svg" width="11.252" height="10" viewBox="0 0 11.252 10">
    <defs>
        <style>
            .cls-1{fill:rgba(255,255,255,.25)}
        </style>
    </defs>
    <path id="edit" d="M7.865 1.723l1.762 1.762a.191.191 0 0 1 0 .27L5.36 8.021l-1.813.2a.38.38 0 0 1-.42-.42l.2-1.813L7.6 1.723a.191.191 0 0 1 .27 0zm3.165-.447l-.954-.953A.764.764 0 0 0 9 .323l-.692.692a.191.191 0 0 0 0 .27l1.762 1.762a.191.191 0 0 0 .27 0l.692-.692a.764.764 0 0 0 0-1.078zM7.5 6.861V8.85H1.25V2.6h4.489a.24.24 0 0 0 .166-.068l.781-.781a.234.234 0 0 0-.166-.4H.938A.938.938 0 0 0 0 2.286v6.876a.938.938 0 0 0 .938.938h6.876a.938.938 0 0 0 .938-.938V6.08a.235.235 0 0 0-.4-.166L7.57 6.7a.24.24 0 0 0-.07.161z" class="cls-1" transform="translate(0 -.1)"/>
</svg>
