<svg xmlns="http://www.w3.org/2000/svg" width="13.333" height="10" viewBox="0 0 13.333 10">
    <defs>
        <style>
            .cls-1{fill:rgba(255,255,255,.25)}
        </style>
    </defs>
    <path id="envelope" d="M12.083 64H1.25A1.25 1.25 0 0 0 0 65.25v7.5A1.25 1.25 0 0 0 1.25 74h10.833a1.25 1.25 0 0 0 1.25-1.25v-7.5a1.25 1.25 0 0 0-1.25-1.25zm0 1.25v1.063c-.584.475-1.515 1.215-3.5 2.773-.439.345-1.307 1.174-1.912 1.164-.6.01-1.473-.819-1.912-1.164a234.61 234.61 0 0 1-3.5-2.773V65.25zM1.25 72.75v-4.833c.6.475 1.443 1.142 2.733 2.152.569.448 1.566 1.437 2.684 1.431s2.1-.969 2.684-1.431c1.29-1.01 2.136-1.677 2.733-2.152v4.833z" class="cls-1" transform="translate(0 -64)"/>
</svg>
