<svg xmlns="http://www.w3.org/2000/svg" xmlns:xlink="http://www.w3.org/1999/xlink" width="33.711" height="26.778" viewBox="0 0 33.711 26.778">
  <defs>
    <clipPath id="clip-path">
      <rect width="33.711" height="26.778" fill="none"/>
    </clipPath>
    <linearGradient id="linear-gradient" x1="0.957" y1="1.291" x2="0.043" y2="-0.291" gradientUnits="objectBoundingBox">
      <stop offset="0" stop-color="#f03c3c"/>
      <stop offset="1" stop-color="#ff7e24"/>
    </linearGradient>
  </defs>
  <g id="icon_offer" clip-path="url(#clip-path)">
    <path id="money-bill-wave" d="M15,37.25c-2.485,0-4.5,2.35-4.5,5.25s2.015,5.25,4.5,5.25,4.5-2.35,4.5-5.25S17.485,37.25,15,37.25Zm0,9c-1.654,0-3-1.682-3-3.75s1.346-3.75,3-3.75,3,1.682,3,3.75S16.654,46.25,15,46.25Zm14.117-13.2A13.881,13.881,0,0,0,23.66,32c-5.774,0-11.547,2.922-17.32,2.922A20.037,20.037,0,0,1,1.512,34.2,1.492,1.492,0,0,0,0,35.694V50.566a1.491,1.491,0,0,0,.883,1.381A13.874,13.874,0,0,0,6.34,53c5.774,0,11.547-2.923,17.32-2.923a20.03,20.03,0,0,1,4.828.72A1.492,1.492,0,0,0,30,49.306V34.434A1.491,1.491,0,0,0,29.117,33.053ZM1.545,35.715a15.042,15.042,0,0,0,2.938.6,3,3,0,0,1-2.948,2.833ZM1.5,50.566l.006-1.994a3,3,0,0,1,2.971,2.786A11.528,11.528,0,0,1,1.5,50.566Zm26.955-1.281a15.023,15.023,0,0,0-2.928-.6,3,3,0,0,1,2.939-2.743l-.01,3.346Zm.015-4.853a4.5,4.5,0,0,0-4.433,4.153,35.166,35.166,0,0,0-9.4,1.494c-3.519.891-5.932,1.463-8.644,1.4A4.508,4.508,0,0,0,1.51,47.066L1.53,40.66a4.5,4.5,0,0,0,4.443-4.243,35.2,35.2,0,0,0,9.394-1.494c3.506-.888,5.929-1.463,8.635-1.4a4.513,4.513,0,0,0,4.488,4.5l-.019,6.406Zm.024-7.912a3,3,0,0,1-2.98-2.877,11.527,11.527,0,0,1,2.986.793Z" transform="matrix(0.978, -0.208, 0.208, 0.978, -6.653, -25.063)" fill="url(#linear-gradient)"/>
  </g>
</svg>
