<svg xmlns="http://www.w3.org/2000/svg" xmlns:xlink="http://www.w3.org/1999/xlink" width="22.286" height="26" viewBox="0 0 22.286 26">
  <defs>
    <clipPath id="clip-path">
      <rect width="22.286" height="26" fill="none"/>
    </clipPath>
    <linearGradient id="linear-gradient" x1="1" y1="1" x2="0" gradientUnits="objectBoundingBox">
      <stop offset="0" stop-color="#f03c3c"/>
      <stop offset="1" stop-color="#ff7e24"/>
    </linearGradient>
  </defs>
  <g id="icon_popular" clip-path="url(#clip-path)">
    <path id="fire" d="M16.093,34.6A33.642,33.642,0,0,0,13,37.571,36.14,36.14,0,0,0,8.357,32C3.471,36.631,0,42.661,0,46.3A11.435,11.435,0,0,0,11.143,58,11.435,11.435,0,0,0,22.286,46.3C22.286,43.6,19.7,38.018,16.093,34.6ZM14.654,54.965a5.511,5.511,0,0,1-3.43,1.172c-3.389-.046-5.664-2.565-5.664-6.314,0-1.433.969-2.948,2.635-5.2l4.2,7.034,3.761-3.563c.992,2.96.145,5.577-1.5,6.871Zm3.494-2.275A9.782,9.782,0,0,0,16.714,45L12.8,48.714l-4.44-7.429c-3.645,4.9-5.589,6.958-4.231,11.387A10.1,10.1,0,0,1,1.857,46.3c0-2.5,2.4-7.342,6.488-11.659a41.32,41.32,0,0,1,3.14,4.01l1.428,2.008,1.538-1.927a13.315,13.315,0,0,1,1.544-1.538c2.7,3.157,4.434,7.347,4.434,9.112a10.112,10.112,0,0,1-2.281,6.384Z" transform="translate(0 -32)" fill="url(#linear-gradient)"/>
  </g>
</svg>
