<svg xmlns="http://www.w3.org/2000/svg" xmlns:xlink="http://www.w3.org/1999/xlink" width="19.299" height="15" viewBox="0 0 19.299 15">
  <defs>
    <clipPath id="clip-path">
      <rect width="19.299" height="15" fill="none"/>
    </clipPath>
  </defs>
  <g id="icon_home" clip-path="url(#clip-path)">
    <path id="home" d="M16.409,41.744v4.8a.8.8,0,0,1-.8.8H11.718a.4.4,0,0,1-.4-.4V43.195a.4.4,0,0,0-.4-.4H8.5a.4.4,0,0,0-.4.4v3.753a.4.4,0,0,1-.4.4H3.81a.8.8,0,0,1-.8-.8v-4.8a.4.4,0,0,1,.147-.312l6.3-5.187a.408.408,0,0,1,.513,0l6.3,5.187a.41.41,0,0,1,.144.312Zm2.8-2.041-2.8-2.309V32.754a.4.4,0,0,0-.4-.4H14.131a.4.4,0,0,0-.4.4v2.433l-3-2.47a1.607,1.607,0,0,0-2.044,0L.2,39.7a.4.4,0,0,0-.054.566l.854,1.039a.4.4,0,0,0,.566.054l7.881-6.491a.408.408,0,0,1,.513,0l7.881,6.491a.4.4,0,0,0,.566-.054l.854-1.039A.4.4,0,0,0,19.211,39.7Z" transform="translate(-0.059 -32.35)" fill="#fff"/>
  </g>
</svg>
