<svg xmlns="http://www.w3.org/2000/svg" width="10" height="10" viewBox="0 0 10 10">
    <defs>
        <style>
            .cls-1{fill:rgba(255,255,255,.25)}
        </style>
    </defs>
    <path id="key" d="M10 3.438a3.439 3.439 0 0 1-4.079 3.377l-.469.528A.469.469 0 0 1 5.1 7.5h-.725v.781a.469.469 0 0 1-.469.469h-.781v.781a.469.469 0 0 1-.469.469H.469A.469.469 0 0 1 0 9.531V8.007a.469.469 0 0 1 .137-.331L3.3 4.515A3.438 3.438 0 1 1 10 3.438zM6.563 2.5a.938.938 0 1 0 .937-.937.937.937 0 0 0-.937.937z" class="cls-1"/>
</svg>
