<svg version="1.1" xmlns="http://www.w3.org/2000/svg" xmlns:xlink="http://www.w3.org/1999/xlink" xmlns:i="http://ns.adobe.com/AdobeIllustrator/10.0/" xmlns:sketch="http://www.bohemiancoding.com/sketch/ns" height="100%" width="100%" x="0px" y="0px" viewBox="0 0 640 480" xml:space="preserve" preserveAspectRatio="xMidYMid meet" class=""><rect x="0px" y="0px" width="100%" height="100%" fill="#000000"/><g class="logo-container-box logoContainerBox" transform="scale(0.75) translate(106.66671244303387,80.00000762939453)"><g class="containerBody" transform="scale(0.770606086387376) translate(205.89074987636286,71.44316692997722)" ><g class="sampleIconBox" transform="scale(1) translate(0,0)"><g class="sampleIcons_1" transform="scale(1.096129060098099) translate(385.21221714633225,168.9522530555725)" fill="#ffffff"><path d="M41.358,81.951c-0.676-1.088-1.844-1.14-3.295-0.798c-1.005,0.235-1.531,0.189-1.796-0.237  c-0.279-0.449,0.005-0.967,0.645-1.365c0.729-0.453,1.538-0.629,2.169-0.664l-0.479-1.522c-0.58,0.018-1.434,0.269-2.207,0.703  l-0.662-1.066l-1.099,0.683l0.711,1.144c-1.151,1.026-1.328,2.318-0.707,3.317c0.627,1.01,1.549,1.292,3.177,0.934  c1.177-0.234,1.716-0.242,1.946,0.128c0.195,0.314,0.155,0.775-0.575,1.228c-0.808,0.502-1.484,0.565-1.853,0.622l0.463,1.47  c0.482-0.05,1.084-0.207,1.857-0.641l0.614,0.987l1.099-0.683l-0.662-1.066C41.757,84.144,41.972,82.938,41.358,81.951z"></path><path d="M50.036,60.283c0.698,1.123,1.723,1.437,3.533,1.038c1.308-0.26,1.908-0.269,2.164,0.143  c0.217,0.349,0.172,0.861-0.639,1.365c-0.898,0.558-1.65,0.628-2.06,0.692l0.514,1.634c0.536-0.056,1.206-0.23,2.065-0.712  l0.682,1.098l1.222-0.76l-0.736-1.185c1.172-1.091,1.411-2.433,0.728-3.531c-0.752-1.21-2.05-1.268-3.664-0.888  c-1.117,0.262-1.702,0.21-1.997-0.264c-0.31-0.499,0.006-1.076,0.717-1.517c0.811-0.504,1.71-0.699,2.412-0.738l-0.533-1.692  c-0.644,0.02-1.595,0.299-2.454,0.781l-0.736-1.185l-1.222,0.76l0.791,1.272C49.543,57.736,49.346,59.173,50.036,60.283z"></path><path d="M62.555,90.228c0.421,0.678,1.04,0.867,2.132,0.627c0.79-0.157,1.151-0.162,1.306,0.086  c0.131,0.211,0.104,0.52-0.386,0.824c-0.542,0.337-0.996,0.379-1.243,0.418l0.31,0.986c0.323-0.034,0.728-0.139,1.246-0.43  l0.412,0.663l0.738-0.458l-0.444-0.715c0.707-0.659,0.851-1.468,0.44-2.131c-0.454-0.73-1.237-0.765-2.211-0.536  c-0.674,0.158-1.027,0.127-1.205-0.159c-0.187-0.301,0.003-0.649,0.433-0.916c0.489-0.304,1.032-0.422,1.456-0.445l-0.322-1.021  c-0.389,0.012-0.963,0.181-1.481,0.472l-0.444-0.715l-0.738,0.458l0.477,0.768C62.258,88.691,62.139,89.558,62.555,90.228z"></path><path d="M67.721,94.795c2.552-1.586,3.335-4.94,1.75-7.492c-1.586-2.552-4.94-3.335-7.492-1.75s-3.335,4.94-1.75,7.492  S65.169,96.381,67.721,94.795z M62.553,87.234l0.738-0.458l0.444,0.715c0.519-0.291,1.092-0.459,1.481-0.472l0.322,1.021  c-0.424,0.023-0.966,0.141-1.456,0.445c-0.429,0.267-0.62,0.615-0.433,0.916c0.178,0.286,0.531,0.317,1.205,0.159  c0.974-0.23,1.758-0.195,2.211,0.536c0.412,0.663,0.268,1.472-0.44,2.131l0.444,0.715l-0.738,0.458l-0.412-0.663  c-0.518,0.291-0.923,0.396-1.246,0.43l-0.31-0.986c0.247-0.039,0.701-0.081,1.243-0.418c0.489-0.304,0.517-0.613,0.386-0.824  c-0.154-0.248-0.516-0.243-1.306-0.086c-1.092,0.24-1.711,0.051-2.132-0.627c-0.416-0.67-0.298-1.537,0.475-2.226L62.553,87.234z"></path><path d="M33.776,75.18c-3.803,2.363-4.97,7.362-2.607,11.165c2.363,3.803,7.362,4.97,11.165,2.607  c3.803-2.363,4.97-7.362,2.607-11.165C42.578,73.984,37.579,72.817,33.776,75.18z M41.365,86.192l-1.099,0.683l-0.614-0.987  c-0.773,0.434-1.375,0.59-1.857,0.641l-0.463-1.47c0.368-0.058,1.045-0.12,1.853-0.622c0.729-0.453,0.77-0.914,0.575-1.228  c-0.23-0.37-0.769-0.362-1.946-0.128c-1.628,0.359-2.55,0.076-3.177-0.934c-0.621-0.999-0.443-2.29,0.707-3.317l-0.711-1.144  l1.099-0.683l0.662,1.066c0.773-0.434,1.628-0.685,2.207-0.703l0.479,1.522c-0.632,0.035-1.44,0.211-2.169,0.664  c-0.639,0.397-0.924,0.916-0.645,1.365c0.265,0.426,0.791,0.473,1.796,0.237c1.451-0.342,2.619-0.29,3.295,0.798  c0.614,0.987,0.399,2.194-0.655,3.175L41.365,86.192z"></path><path d="M66.543,4.385h-4.143c-2.557,0-4.656,1.958-4.932,4.445c-1.035-0.124-2.081-0.207-3.149-0.207  c-1.191,0-2.354,0.107-3.502,0.261c-0.251-2.513-2.362-4.499-4.937-4.499h-4.143c-2.743,0-4.987,2.244-4.987,4.987v6.059  c-3.227,2.927-5.716,6.639-7.168,10.846c-3.044,0.569-5.757,2.548-7.127,5.398c-1.214,2.525-1.288,5.194-0.504,7.54  c0.25,0.749,1.298,0.828,1.666,0.128c1.015-1.933,2.624-3.433,4.525-4.345c0.005,0.723,0.047,1.437,0.109,2.145  c0.02,0.227,0.052,0.449,0.078,0.674c0.055,0.483,0.119,0.963,0.201,1.438c0.043,0.252,0.092,0.502,0.142,0.752  c0.091,0.451,0.194,0.896,0.307,1.338c0.061,0.239,0.121,0.478,0.189,0.715c0.139,0.484,0.296,0.961,0.463,1.433  c0.062,0.176,0.116,0.356,0.181,0.53c0.239,0.635,0.5,1.259,0.785,1.869c0.069,0.147,0.149,0.288,0.22,0.434  c0.227,0.463,0.463,0.92,0.716,1.367c0.121,0.214,0.251,0.423,0.378,0.634c0.224,0.371,0.456,0.738,0.698,1.097  c0.146,0.216,0.294,0.43,0.445,0.641c0.252,0.351,0.515,0.694,0.784,1.032c0.106,0.133,0.201,0.276,0.31,0.407l0.018,0.001  c2.387,2.88,5.37,5.248,8.773,6.894c0.212-1.487,0.732-2.92,1.525-4.213c-0.042-0.017-0.084-0.028-0.125-0.045  c-0.74-0.302-1.095-1.145-0.793-1.886c0.302-0.74,1.147-1.095,1.886-0.793c6.13,2.5,13.348,0.846,15.66,0.2  c0.001,0,0.002,0,0.003-0.001c0.376-0.105,0.615-0.18,0.703-0.209c0.036-0.012,0.057-0.019,0.061-0.02  c0.156-0.053,0.314-0.078,0.468-0.078c0.601,0,1.163,0.377,1.369,0.978c0.219,0.643-0.042,1.33-0.588,1.681  c0.027,0.042,0.057,0.078,0.084,0.12c0.912,1.467,1.424,3.066,1.589,4.676c0.003-0.001,0.006-0.002,0.009-0.004  c1.981,2.065,4.815,3.266,7.765,3.084c1.322-0.082,2.551-0.405,3.656-0.92c1.806-0.841,1.645-3.478-0.278-3.998  c-1.646-0.445-3.14-1.317-4.355-2.499c1.023-0.898,1.97-1.878,2.841-2.923c0.01-0.011,0.025-0.021,0.034-0.032  c0.074-0.094,0.143-0.192,0.216-0.287c1.71-2.118,3.09-4.506,4.078-7.094c0.041-0.104,0.079-0.208,0.118-0.313  c0.122-0.333,0.244-0.665,0.353-1.004c0.174-0.532,0.336-1.07,0.474-1.618h1.561c2.743,0,4.987-2.244,4.987-4.987v-4.143  c0-2.743-2.244-4.987-4.987-4.987h-1.903c-1.449-4.702-4.201-8.822-7.816-11.981V9.372C71.53,6.629,69.286,4.385,66.543,4.385z"></path><path d="M58.594,67.851c4.229-2.628,5.526-8.186,2.899-12.414c-0.482-0.776-1.065-1.452-1.719-2.024  c-1.791,0.501-7.178,1.729-12.007,0.124c-3.154,2.87-3.919,7.663-1.588,11.415C48.808,69.18,54.366,70.478,58.594,67.851z   M50.032,55.323l1.222-0.76l0.736,1.185c0.859-0.482,1.81-0.761,2.454-0.781l0.533,1.692c-0.702,0.039-1.601,0.234-2.412,0.738  c-0.711,0.442-1.027,1.018-0.717,1.517c0.295,0.474,0.88,0.526,1.997,0.264c1.614-0.38,2.912-0.323,3.664,0.888  c0.682,1.098,0.444,2.439-0.728,3.531l0.736,1.185l-1.222,0.76l-0.682-1.098c-0.859,0.482-1.529,0.656-2.065,0.712l-0.514-1.634  c0.41-0.064,1.162-0.134,2.06-0.692c0.811-0.504,0.856-1.016,0.639-1.365c-0.256-0.412-0.855-0.402-2.164-0.143  c-1.81,0.399-2.835,0.085-3.533-1.038c-0.69-1.11-0.493-2.547,0.787-3.688L50.032,55.323z"></path></g></g><g class="sampleTexts_1" transform="scale(1) translate(0.000004577636730118684,25.923133850097656)"><g class="logo--name svgLogoName_1 logoNameBox" transform="scale(1) translate(-101.27886719703673,239.27682876586914)" fill="#ffffff"><path d="M4.54 0L4.54 0L12.31 0L12.31 0Q12.89 0 13.25-0.36L13.25-0.36L13.25-0.36Q13.61-0.72 13.61-1.30L13.61-1.30L13.61-18.07L30.53-18.07L30.53-18.07Q31.10-18.07 31.46-18.50L31.46-18.50L31.46-18.50Q31.82-18.86 31.82-19.37L31.82-19.37L31.82-27.14L31.82-27.14Q31.82-27.72 31.46-28.08L31.46-28.08L31.46-28.08Q31.10-28.44 30.53-28.44L30.53-28.44L13.61-28.44L13.61-40.10L31.97-40.10L31.97-40.10Q32.54-40.10 32.90-40.46L32.90-40.46L32.90-40.46Q33.34-40.82 33.34-41.33L33.34-41.33L33.34-49.18L33.34-49.18Q33.34-49.68 32.90-50.04L32.90-50.04L32.90-50.04Q32.54-50.40 31.97-50.40L31.97-50.40L4.54-50.40L4.54-50.40Q4.03-50.40 3.67-50.04L3.67-50.04L3.67-50.04Q3.24-49.68 3.24-49.18L3.24-49.18L3.24-1.30L3.24-1.30Q3.24-0.72 3.67-0.36L3.67-0.36L3.67-0.36Q4.03 0 4.54 0L4.54 0ZM64.01-48.96L64.01-18.58L64.01-18.58Q64.15-15.84 62.64-12.82L62.64-12.82L62.64-12.82Q61.06-9.79 55.87-9.50L55.87-9.50L55.87-9.50Q50.76-9.79 49.18-12.82L49.18-12.82L49.18-12.82Q47.66-15.84 47.81-18.58L47.81-18.58L47.81-48.96L47.81-48.96Q47.81-49.54 47.38-49.97L47.38-49.97L47.38-49.97Q46.94-50.40 46.37-50.40L46.37-50.40L38.81-50.40L38.81-50.40Q38.23-50.40 37.80-49.97L37.80-49.97L37.80-49.97Q37.44-49.54 37.44-48.96L37.44-48.96L37.44-18.58L37.44-18.58Q37.51-9.36 42.26-4.32L42.26-4.32L42.26-4.32Q47.02 0.65 55.87 0.72L55.87 0.72L55.87 0.72Q64.80 0.65 69.62-4.32L69.62-4.32L69.62-4.32Q74.38-9.36 74.45-18.58L74.45-18.58L74.45-48.96L74.45-48.96Q74.45-49.54 74.09-49.97L74.09-49.97L74.09-49.97Q73.66-50.40 73.08-50.40L73.08-50.40L65.45-50.40L65.45-50.40Q64.87-50.40 64.44-49.97L64.44-49.97L64.44-49.97Q64.01-49.54 64.01-48.96L64.01-48.96ZM108.29-49.03L108.29-21.24L88.34-49.18L88.34-49.18Q87.98-49.75 87.34-50.04L87.34-50.04L87.34-50.04Q86.76-50.40 86.04-50.40L86.04-50.40L81.94-50.40L81.94-50.40Q81.22-50.40 80.86-49.90L80.86-49.90L80.86-49.90Q80.57-49.39 80.57-48.60L80.57-48.60L80.57-1.44L80.57-1.44Q80.57-0.86 81-0.43L81-0.43L81-0.43Q81.36 0 81.94 0L81.94 0L89.57 0L89.57 0Q90.14 0 90.58-0.43L90.58-0.43L90.58-0.43Q90.94-0.86 90.94-1.44L90.94-1.44L90.94-27.94L109.30-1.30L109.30-1.30Q109.73-0.72 110.38-0.36L110.38-0.36L110.38-0.36Q110.95 0 111.74 0L111.74 0L117.29 0L117.29 0Q117.86 0 118.30-0.43L118.30-0.43L118.30-0.43Q118.66-0.86 118.66-1.44L118.66-1.44L118.66-49.03L118.66-49.03Q118.66-49.61 118.30-50.04L118.30-50.04L118.30-50.04Q117.86-50.47 117.29-50.47L117.29-50.47L109.66-50.47L109.66-50.47Q109.08-50.47 108.72-50.04L108.72-50.04L108.72-50.04Q108.29-49.61 108.29-49.03L108.29-49.03ZM139.54-51.12L139.54-51.12L139.54-51.12Q137.30-51.12 133.85-50.76L133.85-50.76L133.85-50.76Q130.39-50.33 126.72-49.54L126.72-49.54L126.72-49.54Q126.00-49.39 125.57-48.82L125.57-48.82L125.57-48.82Q125.14-48.24 125.14-47.52L125.14-47.52L125.14-2.81L125.14-2.81Q125.14-2.09 125.57-1.51L125.57-1.51L125.57-1.51Q126.00-1.01 126.72-0.79L126.72-0.79L126.72-0.79Q130.75 0.07 134.14 0.43L134.14 0.43L134.14 0.43Q137.45 0.72 139.39 0.72L139.39 0.72L139.39 0.72Q150.19 0.79 155.95-5.98L155.95-5.98L155.95-5.98Q161.64-12.67 161.71-26.64L161.71-26.64L161.71-26.64Q161.71-37.30 156.17-44.06L156.17-44.06L156.17-44.06Q150.62-50.90 139.54-51.12L139.54-51.12ZM139.32-9.14L135.36-9.14L135.36-41.18L139.54-41.18L139.54-41.18Q144.50-41.18 147.82-37.66L147.82-37.66L147.82-37.66Q151.06-34.06 151.20-26.64L151.20-26.64L151.20-26.64Q151.27-19.66 148.61-14.54L148.61-14.54L148.61-14.54Q145.94-9.43 139.32-9.14L139.32-9.14ZM167.62-40.03L167.62-40.03L172.30-40.03L172.30-10.37L167.47-10.37L167.47-10.37Q166.90-10.37 166.46-10.01L166.46-10.01L166.46-10.01Q166.03-9.58 166.03-9.00L166.03-9.00L166.03-1.44L166.03-1.44Q166.03-0.86 166.46-0.43L166.46-0.43L166.46-0.43Q166.90 0 167.47 0L167.47 0L187.63 0L187.63 0Q188.21 0 188.64-0.43L188.64-0.43L188.64-0.43Q189.07-0.86 189.07-1.44L189.07-1.44L189.07-9.00L189.07-9.00Q189.07-9.58 188.64-10.01L188.64-10.01L188.64-10.01Q188.21-10.37 187.63-10.37L187.63-10.37L182.74-10.37L182.74-40.03L187.42-40.03L187.42-40.03Q187.99-40.03 188.42-40.39L188.42-40.39L188.42-40.39Q188.86-40.82 188.86-41.40L188.86-41.40L188.86-48.96L188.86-48.96Q188.86-49.54 188.42-49.97L188.42-49.97L188.42-49.97Q187.99-50.40 187.42-50.40L187.42-50.40L167.62-50.40L167.62-50.40Q167.04-50.40 166.68-49.97L166.68-49.97L166.68-49.97Q166.25-49.54 166.25-48.96L166.25-48.96L166.25-41.40L166.25-41.40Q166.25-40.82 166.68-40.39L166.68-40.39L166.68-40.39Q167.04-40.03 167.62-40.03L167.62-40.03ZM222.19-49.03L222.19-21.24L202.25-49.18L202.25-49.18Q201.89-49.75 201.24-50.04L201.24-50.04L201.24-50.04Q200.66-50.40 199.94-50.40L199.94-50.40L195.84-50.40L195.84-50.40Q195.12-50.40 194.76-49.90L194.76-49.90L194.76-49.90Q194.47-49.39 194.47-48.60L194.47-48.60L194.47-1.44L194.47-1.44Q194.47-0.86 194.90-0.43L194.90-0.43L194.90-0.43Q195.26 0 195.84 0L195.84 0L203.47 0L203.47 0Q204.05 0 204.48-0.43L204.48-0.43L204.48-0.43Q204.84-0.86 204.84-1.44L204.84-1.44L204.84-27.94L223.20-1.30L223.20-1.30Q223.63-0.72 224.28-0.36L224.28-0.36L224.28-0.36Q224.86 0 225.65 0L225.65 0L231.19 0L231.19 0Q231.77 0 232.20-0.43L232.20-0.43L232.20-0.43Q232.56-0.86 232.56-1.44L232.56-1.44L232.56-49.03L232.56-49.03Q232.56-49.61 232.20-50.04L232.20-50.04L232.20-50.04Q231.77-50.47 231.19-50.47L231.19-50.47L223.56-50.47L223.56-50.47Q222.98-50.47 222.62-50.04L222.62-50.04L222.62-50.04Q222.19-49.61 222.19-49.03L222.19-49.03ZM258.26-19.73L258.26-19.73L267.62-19.73L267.62-17.28L267.62-17.28Q267.55-13.75 265.46-11.74L265.46-11.74L265.46-11.74Q263.38-9.65 259.70-9.58L259.70-9.58L259.70-9.58Q254.45-9.50 251.86-13.10L251.86-13.10L251.86-13.10Q249.34-16.63 249.34-25.20L249.34-25.20L249.34-25.20Q249.19-31.39 251.14-36.00L251.14-36.00L251.14-36.00Q253.08-40.54 258.77-40.75L258.77-40.75L258.77-40.75Q261.29-40.82 263.30-39.53L263.30-39.53L263.30-39.53Q265.39-38.30 266.76-35.21L266.76-35.21L266.76-35.21Q267.05-34.56 267.62-34.27L267.62-34.27L267.62-34.27Q268.27-33.98 268.92-34.27L268.92-34.27L275.26-36.58L275.26-36.58Q276.05-36.94 276.41-37.66L276.41-37.66L276.41-37.66Q276.77-38.38 276.48-39.24L276.48-39.24L276.48-39.24Q274.10-45.43 269.42-48.31L269.42-48.31L269.42-48.31Q264.74-51.12 258.77-51.12L258.77-51.12L258.77-51.12Q246.96-50.76 242.50-43.20L242.50-43.20L242.50-43.20Q238.10-35.64 238.32-25.20L238.32-25.20L238.32-25.20Q238.39-11.23 243.94-5.18L243.94-5.18L243.94-5.18Q249.48 0.86 259.20 0.72L259.20 0.72L259.20 0.72Q267.62 0.58 272.66-4.25L272.66-4.25L272.66-4.25Q277.78-9.14 277.92-17.28L277.92-17.28L277.92-27.72L277.92-27.72Q277.92-28.73 277.42-29.38L277.42-29.38L277.42-29.38Q276.91-30.10 275.90-30.10L275.90-30.10L258.26-30.10L258.26-30.10Q257.69-30.10 257.33-29.66L257.33-29.66L257.33-29.66Q256.97-29.30 256.97-28.80L256.97-28.80L256.97-20.95L256.97-20.95Q256.97-20.45 257.33-20.09L257.33-20.09L257.33-20.09Q257.69-19.73 258.26-19.73L258.26-19.73ZM299.23-51.05L299.23-51.05L299.23-51.05Q295.63-51.05 292.03-50.47L292.03-50.47L292.03-50.47Q288.50-49.97 285.62-49.10L285.62-49.10L285.62-49.10Q284.90-48.96 284.47-48.38L284.47-48.38L284.47-48.38Q284.04-47.81 284.04-47.09L284.04-47.09L284.04-1.37L284.04-1.37Q284.04-0.79 284.40-0.43L284.40-0.43L284.40-0.43Q284.83 0 285.41 0L285.41 0L292.97 0L292.97 0Q293.54 0 293.90-0.43L293.90-0.43L293.90-0.43Q294.34-0.79 294.34-1.37L294.34-1.37L294.34-18.36L297.94-18.36L297.94-18.36Q303.91-17.93 304.92-12.31L304.92-12.31L304.92-12.31Q305.86-6.70 308.09-1.51L308.09-1.51L308.09-1.51Q308.52-0.79 309.24-0.43L309.24-0.43L309.24-0.43Q309.89 0 310.75 0L310.75 0L319.68 0L319.68 0Q320.47-0.07 320.83-0.72L320.83-0.72L320.83-0.72Q321.12-1.37 320.69-2.09L320.69-2.09L320.69-2.09Q316.58-9.07 315.22-14.90L315.22-14.90L315.22-14.90Q313.92-20.74 307.37-22.82L307.37-22.82L307.37-22.82Q307.22-22.90 307.22-22.97L307.22-22.97L307.22-22.97Q307.22-23.04 307.37-23.04L307.37-23.04L307.37-23.04Q312.34-24.26 314.78-27.72L314.78-27.72L314.78-27.72Q317.16-31.25 317.16-36.07L317.16-36.07L317.16-36.07Q317.02-43.63 312.05-47.38L312.05-47.38L312.05-47.38Q307.08-51.05 299.23-51.05L299.23-51.05ZM299.30-27.72L294.34-27.72L294.34-40.82L294.34-40.82Q295.56-40.97 296.93-40.97L296.93-40.97L296.93-40.97Q298.37-41.04 299.30-41.04L299.30-41.04L299.30-41.04Q302.76-41.04 304.78-39.46L304.78-39.46L304.78-39.46Q306.72-37.80 306.79-34.27L306.79-34.27L306.79-34.27Q306.58-30.10 304.06-28.87L304.06-28.87L304.06-28.87Q301.46-27.58 299.30-27.72L299.30-27.72ZM334.58-9.29L351.43-9.29L354.38-1.30L354.38-1.30Q354.60-0.72 355.18-0.36L355.18-0.36L355.18-0.36Q355.68 0 356.33 0L356.33 0L364.03 0L364.03 0Q364.75 0 365.11-0.58L365.11-0.58L365.11-0.58Q365.47-1.08 365.26-1.73L365.26-1.73L346.61-49.03L346.61-49.03Q346.39-49.68 345.82-50.04L345.82-50.04L345.82-50.04Q345.31-50.40 344.59-50.40L344.59-50.40L341.42-50.40L341.42-50.40Q340.70-50.40 340.20-50.04L340.20-50.04L340.20-50.04Q339.62-49.68 339.41-49.03L339.41-49.03L320.76-1.73L320.76-1.73Q320.54-1.08 320.90-0.58L320.90-0.58L320.90-0.58Q321.26 0 321.98 0L321.98 0L329.69 0L329.69 0Q330.34 0 330.91-0.36L330.91-0.36L330.91-0.36Q331.42-0.72 331.63-1.30L331.63-1.30L334.58-9.29ZM343.01-31.46L347.90-18.65L338.11-18.65L343.01-31.46ZM402.55-50.40L402.55-50.40L369.29-50.40L369.29-50.40Q368.71-50.40 368.28-49.97L368.28-49.97L368.28-49.97Q367.92-49.61 367.92-49.03L367.92-49.03L367.92-41.33L367.92-41.33Q367.92-40.75 368.28-40.39L368.28-40.39L368.28-40.39Q368.71-39.96 369.29-39.96L369.29-39.96L380.74-39.96L380.74-1.44L380.74-1.44Q380.74-0.86 381.17-0.43L381.17-0.43L381.17-0.43Q381.53 0 382.10 0L382.10 0L389.74 0L389.74 0Q390.31 0 390.74-0.43L390.74-0.43L390.74-0.43Q391.10-0.86 391.10-1.44L391.10-1.44L391.10-39.96L402.55-39.96L402.55-39.96Q403.13-39.96 403.56-40.39L403.56-40.39L403.56-40.39Q403.92-40.75 403.92-41.33L403.92-41.33L403.92-49.03L403.92-49.03Q403.92-49.61 403.56-49.97L403.56-49.97L403.56-49.97Q403.13-50.40 402.55-50.40L402.55-50.40ZM410.26 0L410.26 0L437.76 0L437.76 0Q438.34 0 438.70-0.36L438.70-0.36L438.70-0.36Q439.06-0.72 439.06-1.30L439.06-1.30L439.06-9.00L439.06-9.00Q439.06-9.58 438.70-9.94L438.70-9.94L438.70-9.94Q438.34-10.37 437.76-10.37L437.76-10.37L419.40-10.37L419.40-20.81L436.39-20.81L436.39-20.81Q436.97-20.81 437.33-21.17L437.33-21.17L437.33-21.17Q437.69-21.53 437.69-22.03L437.69-22.03L437.69-29.88L437.69-29.88Q437.69-30.38 437.33-30.74L437.33-30.74L437.33-30.74Q436.97-31.18 436.39-31.18L436.39-31.18L419.40-31.18L419.40-40.03L437.76-40.03L437.76-40.03Q438.34-40.03 438.70-40.46L438.70-40.46L438.70-40.46Q439.06-40.82 439.06-41.33L439.06-41.33L439.06-49.18L439.06-49.18Q439.06-49.68 438.70-50.04L438.70-50.04L438.70-50.04Q438.34-50.40 437.76-50.40L437.76-50.40L410.26-50.40L410.26-50.40Q409.68-50.40 409.32-50.04L409.32-50.04L409.32-50.04Q408.96-49.68 408.96-49.18L408.96-49.18L408.96-1.30L408.96-1.30Q408.96-0.72 409.32-0.36L409.32-0.36L409.32-0.36Q409.68 0 410.26 0L410.26 0ZM443.59-6.19L443.59-6.19L443.59-6.19Q443.59-3.02 445.39-1.15L445.39-1.15L445.39-1.15Q447.19 0.65 450.50 0.72L450.50 0.72L450.50 0.72Q453.82 0.65 455.62-1.22L455.62-1.22L455.62-1.22Q457.42-3.10 457.42-6.19L457.42-6.19L457.42-6.19Q457.42-9.29 455.62-11.16L455.62-11.16L455.62-11.16Q453.82-13.03 450.50-13.10L450.50-13.10L450.50-13.10Q447.19-13.03 445.39-11.23L445.39-11.23L445.39-11.23Q443.59-9.36 443.59-6.19L443.59-6.19ZM463.68-40.03L463.68-40.03L468.36-40.03L468.36-10.37L463.54-10.37L463.54-10.37Q462.96-10.37 462.53-10.01L462.53-10.01L462.53-10.01Q462.10-9.58 462.10-9.00L462.10-9.00L462.10-1.44L462.10-1.44Q462.10-0.86 462.53-0.43L462.53-0.43L462.53-0.43Q462.96 0 463.54 0L463.54 0L483.70 0L483.70 0Q484.27 0 484.70-0.43L484.70-0.43L484.70-0.43Q485.14-0.86 485.14-1.44L485.14-1.44L485.14-9.00L485.14-9.00Q485.14-9.58 484.70-10.01L484.70-10.01L484.70-10.01Q484.27-10.37 483.70-10.37L483.70-10.37L478.80-10.37L478.80-40.03L483.48-40.03L483.48-40.03Q484.06-40.03 484.49-40.39L484.49-40.39L484.49-40.39Q484.92-40.82 484.92-41.40L484.92-41.40L484.92-48.96L484.92-48.96Q484.92-49.54 484.49-49.97L484.49-49.97L484.49-49.97Q484.06-50.40 483.48-50.40L483.48-50.40L463.68-50.40L463.68-50.40Q463.10-50.40 462.74-49.97L462.74-49.97L462.74-49.97Q462.31-49.54 462.31-48.96L462.31-48.96L462.31-41.40L462.31-41.40Q462.31-40.82 462.74-40.39L462.74-40.39L462.74-40.39Q463.10-40.03 463.68-40.03L463.68-40.03ZM509.98 0.72L509.98 0.72L509.98 0.72Q522.00 0.36 526.18-7.20L526.18-7.20L526.18-7.20Q530.35-14.76 530.06-25.20L530.06-25.20L530.06-25.20Q529.99-38.95 524.81-45.07L524.81-45.07L524.81-45.07Q519.62-51.26 509.98-51.12L509.98-51.12L509.98-51.12Q500.33-51.26 495.14-45.07L495.14-45.07L495.14-45.07Q489.89-38.95 489.82-25.20L489.82-25.20L489.82-25.20Q489.53-14.76 493.78-7.20L493.78-7.20L493.78-7.20Q497.95 0.36 509.98 0.72L509.98 0.72ZM509.98-40.82L509.98-40.82L509.98-40.82Q515.52-40.61 517.39-36.00L517.39-36.00L517.39-36.00Q519.26-31.39 519.12-25.20L519.12-25.20L519.12-25.20Q519.26-18.94 517.39-14.33L517.39-14.33L517.39-14.33Q515.59-9.72 509.98-9.50L509.98-9.50L509.98-9.50Q504.36-9.72 502.49-14.33L502.49-14.33L502.49-14.33Q500.62-18.94 500.76-25.20L500.76-25.20L500.76-25.20Q500.62-31.39 502.56-36.00L502.56-36.00L502.56-36.00Q504.43-40.61 509.98-40.82L509.98-40.82Z"/></g><g id="" class="logo--name svgSloganText_1 sloganBox" transform="scale(1) translate(428.8,254.4)" fill="#ffffff"><path d=""/></g></g></g></g></svg>