<svg xmlns="http://www.w3.org/2000/svg" width="68.582" height="39.705" viewBox="0 0 68.582 39.705">
  <g id="Bitcoin" transform="translate(-487.209 -2257.647)">
    <rect id="Rectangle_33" data-name="Rectangle 33" width="68.582" height="39.705" rx="3" transform="translate(487.209 2257.647)" fill="#f7931a"/>
    <g id="Bitcoin_logo" transform="translate(501.513 2272.087)">
      <path id="Path_14" data-name="Path 14" d="M359.778,320.709a2.519,2.519,0,0,1,1.108.227,2.232,2.232,0,0,1,.776.614,2.588,2.588,0,0,1,.453.908,4.148,4.148,0,0,1,.146,1.122,4.567,4.567,0,0,1-1.268,3.172,4.366,4.366,0,0,1-1.389.961,4.24,4.24,0,0,1-1.735.354c-.08,0-.222,0-.422-.006a6.167,6.167,0,0,1-.687-.06,8.072,8.072,0,0,1-.822-.161,4.118,4.118,0,0,1-.822-.294l2.31-9.708,2.069-.321-.827,3.445a3.214,3.214,0,0,1,.534-.187A2.369,2.369,0,0,1,359.778,320.709Zm-1.736,5.717a1.814,1.814,0,0,0,.881-.227,2.32,2.32,0,0,0,.715-.608,3.065,3.065,0,0,0,.474-.862,2.937,2.937,0,0,0,.174-1,1.972,1.972,0,0,0-.214-1,.84.84,0,0,0-.788-.361,2.472,2.472,0,0,0-.487.067,1.215,1.215,0,0,0-.542.281l-.881,3.659.14.027a1.053,1.053,0,0,0,.126.02,1.447,1.447,0,0,0,.161.008h.24Z" transform="translate(-355.118 -317.518)" fill="#fff"/>
      <path id="Path_15" data-name="Path 15" d="M401.45,328.562h-1.977l1.669-7.024h1.99Zm.962-7.88a1.226,1.226,0,0,1-.748-.247.872.872,0,0,1-.335-.755,1.256,1.256,0,0,1,.113-.527,1.409,1.409,0,0,1,.3-.428,1.478,1.478,0,0,1,.434-.287,1.324,1.324,0,0,1,.528-.106,1.227,1.227,0,0,1,.747.247.881.881,0,0,1,.334.755,1.247,1.247,0,0,1-.114.528,1.39,1.39,0,0,1-.3.428,1.451,1.451,0,0,1-.434.287A1.3,1.3,0,0,1,402.411,320.683Z" transform="translate(-392.159 -318.199)" fill="#fff"/>
      <path id="Path_16" data-name="Path 16" d="M424.578,325.536l2.07-.321-.508,2.07h2.217l-.4,1.629h-2.2l-.587,2.457a2.777,2.777,0,0,0-.093.574,1.049,1.049,0,0,0,.066.461.579.579,0,0,0,.287.3,1.313,1.313,0,0,0,.594.108,3.161,3.161,0,0,0,.622-.061,4.411,4.411,0,0,0,.607-.167l.147,1.523a7.089,7.089,0,0,1-.868.253,5,5,0,0,1-1.109.107,3.069,3.069,0,0,1-1.429-.273,1.588,1.588,0,0,1-.721-.749,2.38,2.38,0,0,1-.187-1.088,7.038,7.038,0,0,1,.187-1.3Z" transform="translate(-411.873 -323.946)" fill="#fff"/>
      <path id="Path_17" data-name="Path 17" d="M454.56,341.037a4.932,4.932,0,0,1,.294-1.71,4.205,4.205,0,0,1,.842-1.4,3.943,3.943,0,0,1,1.329-.948,4.247,4.247,0,0,1,1.742-.347,4.6,4.6,0,0,1,1.075.114,4.351,4.351,0,0,1,.862.3l-.682,1.55c-.178-.072-.363-.136-.554-.194a2.411,2.411,0,0,0-.7-.087,1.959,1.959,0,0,0-1.569.681,2.729,2.729,0,0,0-.581,1.83,1.882,1.882,0,0,0,.294,1.1,1.231,1.231,0,0,0,1.081.42,3.468,3.468,0,0,0,.748-.08,3.691,3.691,0,0,0,.641-.2l.148,1.589a7.147,7.147,0,0,1-.828.261,4.6,4.6,0,0,1-1.082.112,3.651,3.651,0,0,1-1.4-.24,2.67,2.67,0,0,1-.948-.648,2.441,2.441,0,0,1-.541-.956A3.917,3.917,0,0,1,454.56,341.037Z" transform="translate(-438.163 -333.478)" fill="#fff"/>
      <path id="Path_18" data-name="Path 18" d="M493.748,344.028a3.232,3.232,0,0,1-1.229-.214,2.269,2.269,0,0,1-.861-.6,2.6,2.6,0,0,1-.514-.915,3.694,3.694,0,0,1-.173-1.167,5.154,5.154,0,0,1,.26-1.6,4.539,4.539,0,0,1,.769-1.442,4.1,4.1,0,0,1,1.241-1.05,3.415,3.415,0,0,1,1.682-.407,3.249,3.249,0,0,1,1.223.214,2.286,2.286,0,0,1,.868.6,2.61,2.61,0,0,1,.513.915,3.7,3.7,0,0,1,.174,1.168,5.324,5.324,0,0,1-.253,1.6,4.629,4.629,0,0,1-.748,1.442,3.919,3.919,0,0,1-1.235,1.048A3.507,3.507,0,0,1,493.748,344.028Zm.988-5.715a1.249,1.249,0,0,0-.774.253,2.182,2.182,0,0,0-.56.641,3.168,3.168,0,0,0-.342.848,3.655,3.655,0,0,0-.113.874,2.13,2.13,0,0,0,.213,1.043.817.817,0,0,0,.775.373,1.242,1.242,0,0,0,.775-.254,2.192,2.192,0,0,0,.56-.641,3.176,3.176,0,0,0,.342-.848,3.7,3.7,0,0,0,.113-.875,2.114,2.114,0,0,0-.214-1.042A.816.816,0,0,0,494.735,338.312Z" transform="translate(-468.57 -333.478)" fill="#fff"/>
      <path id="Path_19" data-name="Path 19" d="M534.821,328.562h-1.978l1.669-7.024H536.5Zm.96-7.88a1.224,1.224,0,0,1-.747-.247.875.875,0,0,1-.334-.755,1.253,1.253,0,0,1,.114-.527,1.391,1.391,0,0,1,.3-.428,1.475,1.475,0,0,1,.434-.287,1.315,1.315,0,0,1,.527-.106,1.227,1.227,0,0,1,.748.247.88.88,0,0,1,.335.755,1.266,1.266,0,0,1-.115.528,1.385,1.385,0,0,1-.3.428,1.467,1.467,0,0,1-.434.287A1.306,1.306,0,0,1,535.781,320.683Z" transform="translate(-503.538 -318.199)" fill="#fff"/>
      <path id="Path_20" data-name="Path 20" d="M555.492,337.272c.15-.044.318-.1.5-.154s.387-.111.615-.159a7.366,7.366,0,0,1,.761-.121,8.552,8.552,0,0,1,.954-.047,2.386,2.386,0,0,1,2.158.909,3.1,3.1,0,0,1,.208,2.484l-.909,3.792h-1.99l.881-3.713c.054-.232.1-.456.127-.675a1.6,1.6,0,0,0-.007-.574.688.688,0,0,0-.246-.4.955.955,0,0,0-.595-.153,4.019,4.019,0,0,0-.788.081l-1.3,5.435h-1.99Z" transform="translate(-521.102 -333.613)" fill="#fff"/>
    </g>
  </g>
</svg>
