<svg id="layer_1" data-name="layer 1" xmlns="http://www.w3.org/2000/svg" width="40px" height="12px" viewBox="0 0 87.4849 24.9269">
    <defs>
        <style>.cls-1{fill:#555e63;}.cls-2{fill:#f05f00;}.cls-3{fill:#0084c1;}</style>
    </defs>
    <title>g2a_rgb_white_full</title>
    <path class="cls-1"
          d="M42.4591,13.8936a7.08057,7.08057,0,0,0-7.0802,7.0805V28.94H55.2478l2.8182-5.3106H40.9357v-2.129a2.29781,2.29781,0,0,1,2.2976-2.2978l11.1748-.0009a7.5232,7.5232,0,1,0,0-15.0464l-13.2984.0024a5.31053,5.31053,0,0,0-5.3106,5.3105l18.2218-.0005a2.24506,2.24506,0,0,1,2.2617,2.1543,2.21075,2.21075,0,0,1-2.2077,2.2712Z"
          transform="translate(-4.1458 -4.0131)"/>
    <path class="cls-2"
          d="M16.863,23.616a7.06835,7.06835,0,0,1,0-14.1367l14.3484-.0111V4.1577l-14.6861.0104a12.37955,12.37955,0,0,0,0,24.7591l14.6861.0124V13.8931l-15.9318.0004v5.3107l10.3751-.0002v4.4252Z"
          transform="translate(-4.1458 -4.0131)"/>
    <path class="cls-3"
          d="M75.7026,25.9261h-.8549a1.50675,1.50675,0,1,0,0,3.0135h.8549a1.50675,1.50675,0,0,0,0-3.0135Zm-.0307,2.3836h-.7935a.87675.87675,0,0,1,0-1.7535h.7935a.87675.87675,0,0,1,0,1.7535Z"
          transform="translate(-4.1458 -4.0131)"/>
    <path class="cls-3"
          d="M69.6939,27.4328a1.50842,1.50842,0,0,0,1.5067,1.5068h1.7226v-.6299H71.2314a.87675.87675,0,0,1,0-1.7535h1.6918v-.6301H71.2006A1.5084,1.5084,0,0,0,69.6939,27.4328Z"
          transform="translate(-4.1458 -4.0131)"/>
    <polygon class="cls-3"
             points="76.399 21.913 75.742 23.718 75.085 21.913 74.253 21.913 73.136 24.926 73.845 24.926 74.669 22.612 75.403 24.629 76.081 24.629 76.815 22.612 77.639 24.926 78.347 24.926 77.231 21.913 76.399 21.913"/>
    <circle class="cls-3" cx="64.77105" cy="24.51495" r="0.4116"/>
    <path class="cls-3"
          d="M80.1166,7.013a6.12689,6.12689,0,0,0-1.7044-2.0625,4.74943,4.74943,0,0,0-2.8913-.9374,4.523,4.523,0,0,0-2.8138.9374A6.12689,6.12689,0,0,0,71.0027,7.013C66.3612,15.855,59.411,28.94,59.411,28.94h6.34251L75.5209,10.2273l4.5902,8.7943H73.0438l2.4916,4.7577h7.05911L85.2883,28.94h6.3424S84.758,15.855,80.1166,7.013Z"
          transform="translate(-4.1458 -4.0131)"/>
</svg>