<?xml version="1.0" encoding="utf-8"?>
<!-- Generator: Adobe Illustrator 22.1.0, SVG Export Plug-In . SVG Version: 6.00 Build 0)  -->
<svg version="1.1" id="litecoin" xmlns="http://www.w3.org/2000/svg" xmlns:xlink="http://www.w3.org/1999/xlink" x="0px" y="0px"
	 viewBox="0 0 400 312" style="enable-background:new 0 0 400 312;" xml:space="preserve">
<style type="text/css">
	.st0{fill-rule:evenodd;clip-rule:evenodd;fill:#626264;}
	.st1{fill-rule:evenodd;clip-rule:evenodd;fill:#B8B9BB;}
</style>
<g>
	<path class="st0" d="M149.3,135c0,2.7-2.2,5-5,5c-2.7,0-5-2.2-5-5c0-2.7,2.2-5,5-5C147.1,130.1,149.3,132.3,149.3,135L149.3,135z
		 M149.3,135"/>
	<path class="st0" d="M340.1,135.1c0,2.7-2.2,5-5,5c-2.7,0-5-2.2-5-5c0-2.7,2.2-5,5-5C337.9,130.1,340.1,132.4,340.1,135.1
		L340.1,135.1z M340.1,135.1"/>
	<path class="st1" d="M51.7,135.1L44,163.9l-6.1,2.4l-2.2,8.2l6.2-2.1l-4.1,17l44.4,0.1l2.7-10.9h-27l3.5-13.1l7.3-3.1l2.1-8
		l-7.1,2.4l5.6-21.4L51.7,135.1L51.7,135.1z M60.2,113.2c27.1,0,49.1,22,49.1,49.1c0,27.1-22,49.1-49.1,49.1
		c-27.1,0-49.1-22-49.1-49.1C11.2,135.2,33.1,113.2,60.2,113.2L60.2,113.2z M60.2,113.2"/>
	<rect x="122.7" y="127.3" class="st0" width="6.6" height="70.3"/>
	<path class="st0" d="M178.3,152.1l-0.1,6l-9.4,0.1v39.5h-6.6v-39.5l-8,0l0-6.2h8v-17h6.6v17H178.3z M178.3,152.1"/>
	<path class="st0" d="M198.6,151.9c6.5-1.3,13.6-0.5,19,3.5c7,5,9.8,14.3,8.7,22.5c-12.8,0-25.7,0-38.5,0c0.6,4.3,2.7,8.4,6.3,11
		c7.1,5.3,18.5,3.9,23.5-3.5c0.2-0.2,0.7-0.7,0.9-0.9c2.2,0.3,4.3,0.9,6.4,1.3c-2.1,4.8-6.1,8.7-10.9,10.8
		c-5.9,2.6-12.7,2.7-18.6,0.5c-5.6-2.1-10.2-6.6-12.5-12.2c-2.7-6.8-2.5-14.6,0.6-21.2C186.3,157.6,192.1,153.2,198.6,151.9
		L198.6,151.9z M192.5,162.4c-2.6,2.5-4.1,6-4.7,9.5c10.6,0,21.3,0,31.9,0c-0.5-5.8-4.4-11.4-10.1-13.2
		C203.8,156.7,196.8,158.1,192.5,162.4L192.5,162.4z M192.5,162.4"/>
	<path class="st0" d="M237.8,158.9c8.6-9.5,25.1-10.2,34.4-1.4c-1.5,1.6-3.1,3.1-4.7,4.7c-6.5-5.7-17-5.7-23.5-0.1
		c-7.8,6.6-7.3,20.3,0.8,26.4c6.5,5.1,16.5,4.8,22.7-0.8l4.7,4.6c-8.8,8-23.8,8.3-32.6,0.4C230.2,184.3,229.4,168.2,237.8,158.9
		L237.8,158.9z M237.8,158.9"/>
	<path class="st0" d="M356.6,159.4c2.5-5.3,8.9-8.1,15-8.1c2.8,0,5.6,0.5,7.9,1.6c4.6,2,7.2,5.9,8.5,10.4c0.8,2.6,1.1,5.4,1.1,8.1
		l-0.1,26.4l-6.5,0v-26c0-3.9-0.8-8.1-3.5-11c-2.7-2.7-6.9-3.4-10.5-2.6c-4.2,0.6-8.2,3.1-10.2,7c-1.2,2.4-1.7,5-1.7,7.7
		c0,8.3,0,16.6,0,24.9h-6.6v-45.5l6.6,0.1L356.6,159.4L356.6,159.4z M356.6,159.4"/>
	<path class="st0" d="M293.9,151.8c6.5-1.2,13.5-0.2,19,3.5c5.2,3.3,8.7,8.9,9.7,14.9c1,6.3,0,13-3.6,18.3
		c-4.2,6.3-11.8,10.1-19.4,10c-6.4,0.3-12.9-2.1-17.4-6.7c-7.6-7.3-8.8-19.7-3.9-28.8C281.4,157.1,287.4,153,293.9,151.8
		L293.9,151.8z M294.5,158.4c-5.3,1.2-9.8,5.1-11.6,10.2c-2.6,7.1-0.4,15.9,5.9,20.2c7.4,5.4,19,4,24.4-3.5
		c3.9-5.4,4.4-13.1,1.2-18.9C310.7,159.4,301.9,156.4,294.5,158.4L294.5,158.4z M294.5,158.4"/>
	<path class="st0" d="M141,197.7l0-45.4l6.3-0.2l0.1,45.6H141z M141,197.7"/>
	<path class="st0" d="M338.3,197.7h-6.4l0.1-45.6l6.3,0V197.7z M338.3,197.7"/>
</g>
</svg>
