<svg xmlns="http://www.w3.org/2000/svg" width="68.582" height="39.705" viewBox="0 0 68.582 39.705">
  <g id="Mastercard" transform="translate(-487.209 -2257.647)">
    <rect id="Rectangle_33" data-name="Rectangle 33" width="68.582" height="39.705" rx="3" transform="translate(487.209 2257.647)" fill="#efefef"/>
    <g id="Mastercard-logo" transform="translate(2071.924 1159.618)">
      <g id="Group_5" data-name="Group 5" transform="translate(-1565.623 1106.748)">
        <g id="Group_1" data-name="Group 1" transform="translate(1.493 19.321)">
          <path id="Path_21" data-name="Path 21" d="M-158.433-18.579v.059h.055a.057.057,0,0,0,.03-.007.026.026,0,0,0,.011-.022.025.025,0,0,0-.011-.022.053.053,0,0,0-.03-.007Zm.055-.042a.1.1,0,0,1,.066.019.063.063,0,0,1,.023.052.06.06,0,0,1-.018.046.09.09,0,0,1-.052.022l.073.084h-.057l-.067-.083h-.022v.083h-.047v-.222Zm-.014.3a.175.175,0,0,0,.072-.015.189.189,0,0,0,.059-.04.185.185,0,0,0,.04-.059.19.19,0,0,0,.014-.073.19.19,0,0,0-.014-.073.192.192,0,0,0-.04-.059.189.189,0,0,0-.059-.04.184.184,0,0,0-.072-.014.193.193,0,0,0-.073.014.188.188,0,0,0-.06.04.181.181,0,0,0-.039.059.18.18,0,0,0-.014.073.18.18,0,0,0,.014.073.175.175,0,0,0,.039.059.188.188,0,0,0,.06.04.183.183,0,0,0,.073.015m0-.426a.24.24,0,0,1,.1.019.241.241,0,0,1,.077.051.235.235,0,0,1,.052.076.229.229,0,0,1,.019.093.229.229,0,0,1-.019.093.248.248,0,0,1-.052.076.262.262,0,0,1-.077.051.24.24,0,0,1-.1.019.243.243,0,0,1-.1-.019.25.25,0,0,1-.078-.051.248.248,0,0,1-.052-.076.229.229,0,0,1-.019-.093.229.229,0,0,1,.019-.093.235.235,0,0,1,.052-.076.232.232,0,0,1,.078-.051.243.243,0,0,1,.1-.019m-22.466-.855a.723.723,0,0,1,.731-.771.722.722,0,0,1,.725.771.722.722,0,0,1-.725.771.723.723,0,0,1-.731-.771m1.95,0v-1.2h-.524v.292a.913.913,0,0,0-.761-.353,1.207,1.207,0,0,0-1.2,1.265,1.207,1.207,0,0,0,1.2,1.265.913.913,0,0,0,.761-.353v.292h.524Zm17.693,0a.723.723,0,0,1,.731-.771.722.722,0,0,1,.725.771.722.722,0,0,1-.725.771.723.723,0,0,1-.731-.771m1.95,0v-2.171h-.524v1.259a.913.913,0,0,0-.761-.353,1.207,1.207,0,0,0-1.2,1.265,1.207,1.207,0,0,0,1.2,1.265.913.913,0,0,0,.761-.353v.292h.524Zm-13.144-.8a.6.6,0,0,1,.609.584h-1.25a.62.62,0,0,1,.64-.584m.01-.469a1.177,1.177,0,0,0-1.2,1.265,1.188,1.188,0,0,0,1.235,1.265,1.463,1.463,0,0,0,.987-.337l-.257-.388a1.151,1.151,0,0,1-.7.252.669.669,0,0,1-.72-.59h1.788c.005-.065.01-.131.01-.2a1.155,1.155,0,0,0-1.143-1.265m6.322,1.265a.723.723,0,0,1,.731-.771.722.722,0,0,1,.725.771.722.722,0,0,1-.725.771.723.723,0,0,1-.731-.771m1.95,0v-1.2h-.524v.292a.914.914,0,0,0-.761-.353,1.207,1.207,0,0,0-1.2,1.265,1.207,1.207,0,0,0,1.2,1.265.914.914,0,0,0,.761-.353v.292h.524Zm-4.906,0a1.216,1.216,0,0,0,1.285,1.265,1.261,1.261,0,0,0,.866-.287l-.251-.423a1.058,1.058,0,0,1-.63.217.719.719,0,0,1-.725-.771.719.719,0,0,1,.725-.771,1.058,1.058,0,0,1,.63.217l.251-.423a1.261,1.261,0,0,0-.866-.287,1.216,1.216,0,0,0-1.285,1.265m6.75-1.265a.711.711,0,0,0-.635.353v-.292h-.519V-18.4h.524v-1.35c0-.4.171-.62.514-.62a.849.849,0,0,1,.328.061l.161-.494a1.115,1.115,0,0,0-.373-.066m-14.035.252a1.8,1.8,0,0,0-.982-.252c-.61,0-1,.292-1,.771,0,.393.292.635.831.71l.247.035c.287.04.423.116.423.252,0,.186-.191.292-.549.292a1.282,1.282,0,0,1-.8-.252l-.247.408a1.737,1.737,0,0,0,1.043.313c.7,0,1.1-.328,1.1-.786,0-.423-.317-.645-.841-.72l-.247-.036c-.227-.03-.408-.075-.408-.236s.171-.282.458-.282a1.554,1.554,0,0,1,.751.206Zm6.756-.252a.709.709,0,0,0-.634.353v-.292h-.519V-18.4h.524v-1.35c0-.4.171-.62.514-.62a.849.849,0,0,1,.328.061l.161-.494a1.115,1.115,0,0,0-.373-.066m-4.468.061h-.856v-.731h-.529v.731h-.488v.479h.488v1.1c0,.559.217.891.836.891a1.229,1.229,0,0,0,.655-.186l-.151-.449a.969.969,0,0,1-.464.136c-.262,0-.347-.161-.347-.4v-1.088h.856ZM-181.86-18.4V-19.91a.9.9,0,0,0-.947-.957.932.932,0,0,0-.846.428.884.884,0,0,0-.8-.428.8.8,0,0,0-.705.358v-.3h-.524V-18.4h.529v-1.335a.564.564,0,0,1,.59-.64c.348,0,.524.227.524.635v1.34h.529v-1.335a.568.568,0,0,1,.589-.64c.357,0,.529.227.529.635v1.34Z" transform="translate(185.679 21.774)" fill="#231f20"/>
        </g>
        <g id="Group_2" data-name="Group 2" transform="translate(28.297 14.336)">
          <path id="Path_22" data-name="Path 22" d="M-4.443-2.045V-2.4h-.092l-.106.242L-4.746-2.4h-.092v.352h.065v-.265l.1.229h.067l.1-.229v.266Zm-.582,0v-.292h.118V-2.4h-.3v.059h.118v.292Z" transform="translate(5.207 2.397)" fill="#f79410"/>
        </g>
        <path id="Path_23" data-name="Path 23" d="M3350.939,2161.832H3343v-14.261h7.936Z" transform="translate(-3332.302 -2145.631)" fill="#ff5f00"/>
        <g id="Group_3" data-name="Group 3" transform="translate(0 0)">
          <path id="Path_24" data-name="Path 24" d="M-65.182-52.739a9.054,9.054,0,0,1,3.464-7.13,9.03,9.03,0,0,0-5.6-1.939,9.069,9.069,0,0,0-9.068,9.07,9.069,9.069,0,0,0,9.068,9.07,9.03,9.03,0,0,0,5.6-1.939,9.054,9.054,0,0,1-3.464-7.13" transform="translate(76.392 61.809)" fill="#eb001b"/>
        </g>
        <g id="Group_4" data-name="Group 4" transform="translate(14.665 0)">
          <path id="Path_25" data-name="Path 25" d="M-85.327-52.739A9.069,9.069,0,0,1-94.4-43.67,9.033,9.033,0,0,1-100-45.609a9.053,9.053,0,0,0,3.464-7.13A9.053,9.053,0,0,0-100-59.87,9.033,9.033,0,0,1-94.4-61.809a9.069,9.069,0,0,1,9.068,9.07" transform="translate(100.001 61.809)" fill="#f79e1b"/>
        </g>
      </g>
    </g>
  </g>
</svg>
