<svg xmlns="http://www.w3.org/2000/svg" xmlns:xlink="http://www.w3.org/1999/xlink" viewBox="0 0 1400 1400"><defs><style>.cls-1{fill:url(#linear-gradient);}</style><linearGradient id="linear-gradient" x1="176.72" y1="700.37" x2="462.95" y2="700.37" gradientUnits="userSpaceOnUse"><stop offset="0" stop-color="#ff541c"/><stop offset="1" stop-color="#ff7e24"/></linearGradient></defs><title>P2P</title><g id="Layer_1" data-name="Layer 1"><path class="cls-1" d="M462.47,647.17C456.92,706,404.4,753.24,345.57,753.24H293l-2.92,33.44a38,38,0,0,1-21.48,30.44l-61.24,29.33-28.39,13.6-2.22,1.06.1-1.06,1.87-21.35,7.47-85.46h0L189.43,716,194,664.23H299.17l-3.12,35.61,77.44-71.21H234.21a34,34,0,0,1-33.9-37l1.57-18,3-34H365.07c50.31,0,89.44,34.78,96.68,81.6A105,105,0,0,1,462.47,647.17Z"/><path d="M673.91,666.74c0,23.56-14.38,46.5-46.91,46.5H597.4v50.24h-29V619.83H627C659.53,619.83,673.91,643.18,673.91,666.74Zm-29.19,0c0-10.42-5.21-21.26-18.76-21.26H597.4V687.8h28.14C639.51,687.8,644.72,677,644.72,666.74Z"/><path d="M773.89,737.84v25.64H681.94v-14.8l53.38-64c5.63-6.88,9.38-14,9.38-18.55,0-9.18-7.51-15.64-18.14-15.64-12.09,0-19,7.92-20.64,19.81l-24.81-4.17c3.33-24.4,19.18-41.08,46.49-41.08s45,16.48,45,41.29c0,13.13-6.26,24.81-15,34.61l-32.1,36.9Z"/><path d="M899.71,666.74c0,23.56-14.38,46.5-46.91,46.5H823.19v50.24h-29V619.83H852.8C885.33,619.83,899.71,643.18,899.71,666.74Zm-29.19,0c0-10.42-5.21-21.26-18.76-21.26H823.19V687.8h28.15C865.31,687.8,870.52,677,870.52,666.74Z"/><path d="M886.1,748.47c0-9.59,7.92-16.68,17.3-16.68,9.59,0,17.72,7.09,17.72,16.68,0,9.8-8.13,16.89-17.72,16.89C894,765.36,886.1,758.27,886.1,748.47Z"/><path d="M925.42,691.76c0-40.86,32.11-73.8,73.39-73.8,21.68,0,40.66,9,53.17,22.93L1030.92,659a43.81,43.81,0,0,0-32.11-14.18c-25,0-44.41,21.27-44.41,46.91s19.39,47.75,44.41,47.75c18.76,0,33.57-9,37.32-24A16.84,16.84,0,0,0,1037,712H996.31V688.43h72.34c0,53.16-28.56,76.93-69.84,76.93S925.42,732.42,925.42,691.76Z"/><path d="M1075.76,691.76c0-40.86,32.11-73.8,73.39-73.8,21.69,0,40.66,9,53.17,22.93L1181.26,659a43.81,43.81,0,0,0-32.11-14.18c-25,0-44.41,21.27-44.41,46.91s19.39,47.75,44.41,47.75c18.77,0,33.57-9,37.32-24a17.48,17.48,0,0,0,.84-3.54h-40.66V688.43H1219c0,53.16-28.56,76.93-69.85,76.93S1075.76,732.42,1075.76,691.76Z"/></g></svg>