<svg xmlns="http://www.w3.org/2000/svg" width="68.582" height="39.705" viewBox="0 0 68.582 39.705">
  <g id="Paypal" transform="translate(-487.209 -2257.647)">
    <rect id="Rectangle_33" data-name="Rectangle 33" width="68.582" height="39.705" rx="3" transform="translate(487.209 2257.647)" fill="#179bd7"/>
    <g id="PayPal-2" data-name="PayPal" transform="translate(499.316 2271.601)">
      <path id="Path_26" data-name="Path 26" d="M39.5,6.749H37.01a.346.346,0,0,0-.342.292L35.663,13.42a.207.207,0,0,0,.205.239h1.188a.346.346,0,0,0,.342-.292l.271-1.72a.346.346,0,0,1,.341-.292H38.8A2.555,2.555,0,0,0,41.628,8.99a1.916,1.916,0,0,0-.317-1.606A2.308,2.308,0,0,0,39.5,6.749Zm.287,2.33c-.136.893-.818.893-1.478.893h-.375L38.2,8.3a.207.207,0,0,1,.2-.175h.172c.449,0,.873,0,1.092.256a.829.829,0,0,1,.121.693Zm7.149-.029H45.743a.207.207,0,0,0-.2.175l-.053.333L45.4,9.437a1.7,1.7,0,0,0-1.407-.5,2.739,2.739,0,0,0-2.66,2.4,2.249,2.249,0,0,0,.444,1.83,1.864,1.864,0,0,0,1.5.606,2.279,2.279,0,0,0,1.649-.682l-.053.331a.207.207,0,0,0,.2.24h1.073a.346.346,0,0,0,.342-.292l.644-4.077a.207.207,0,0,0-.2-.239Zm-1.66,2.318a1.328,1.328,0,0,1-1.344,1.137.923.923,0,0,1-.987-1.158A1.333,1.333,0,0,1,44.277,10.2a1,1,0,0,1,.794.324,1.031,1.031,0,0,1,.2.843Zm8-2.318h-1.2a.347.347,0,0,0-.286.152l-1.651,2.432-.7-2.337a.347.347,0,0,0-.332-.247H47.936a.207.207,0,0,0-.2.274l1.319,3.869-1.24,1.75a.207.207,0,0,0,.169.327h1.2a.345.345,0,0,0,.284-.148l3.981-5.747a.207.207,0,0,0-.17-.326Z" transform="translate(-22.689 -4.294)" fill="#fff"/>
      <path id="Path_27" data-name="Path 27" d="M88.279,6.748H85.791a.346.346,0,0,0-.341.292l-1.006,6.379a.207.207,0,0,0,.2.239h1.277a.242.242,0,0,0,.239-.2l.286-1.808a.346.346,0,0,1,.341-.292h.787a2.555,2.555,0,0,0,2.832-2.364,1.915,1.915,0,0,0-.318-1.606,2.306,2.306,0,0,0-1.813-.635Zm.287,2.33c-.136.893-.818.893-1.478.893h-.375L86.977,8.3a.207.207,0,0,1,.2-.175h.172c.449,0,.873,0,1.092.256A.829.829,0,0,1,88.566,9.078Zm7.149-.029H94.524a.206.206,0,0,0-.2.175l-.053.333-.084-.121a1.7,1.7,0,0,0-1.407-.5,2.739,2.739,0,0,0-2.659,2.4,2.25,2.25,0,0,0,.443,1.83,1.865,1.865,0,0,0,1.5.606,2.279,2.279,0,0,0,1.649-.682l-.053.331a.207.207,0,0,0,.205.24h1.073a.346.346,0,0,0,.341-.292l.644-4.077a.208.208,0,0,0-.206-.239Zm-1.66,2.318a1.327,1.327,0,0,1-1.344,1.137.923.923,0,0,1-.987-1.158A1.334,1.334,0,0,1,93.058,10.2a1,1,0,0,1,.794.324A1.026,1.026,0,0,1,94.054,11.368Zm3.065-4.445-1.021,6.5a.207.207,0,0,0,.2.239h1.026a.345.345,0,0,0,.342-.292l1.007-6.379a.207.207,0,0,0-.2-.24H97.323a.208.208,0,0,0-.2.175Z" transform="translate(-53.726 -4.293)" fill="#fff"/>
      <path id="Path_29" data-name="Path 29" d="M12.321,7.667q-.015.1-.035.2c-.45,2.31-1.989,3.108-3.955,3.108h-1a.486.486,0,0,0-.48.412l-.513,3.25-.145.921a.256.256,0,0,0,.253.3H8.22a.427.427,0,0,0,.422-.36l.017-.09.334-2.121.021-.116a.427.427,0,0,1,.422-.361H9.7a3.13,3.13,0,0,0,3.46-2.719,2.315,2.315,0,0,0-.356-2.045,1.7,1.7,0,0,0-.486-.375Z" transform="translate(-3.937 -4.878)" fill="rgba(255,255,255,0.5)"/>
      <path id="Path_30" data-name="Path 30" d="M13.006,6.868a3.549,3.549,0,0,0-.438-.1,5.559,5.559,0,0,0-.882-.064H9.012a.426.426,0,0,0-.422.361l-.569,3.6-.016.105a.486.486,0,0,1,.48-.412h1c1.966,0,3.505-.8,3.955-3.108.013-.068.025-.135.035-.2a2.4,2.4,0,0,0-.37-.156l-.1-.032Z" transform="translate(-5.093 -4.267)" fill="rgba(255,255,255,0.75)"/>
      <path id="Path_31" data-name="Path 31" d="M3.5,2.8a.425.425,0,0,1,.422-.36H6.593a5.559,5.559,0,0,1,.882.064,3.549,3.549,0,0,1,.539.128,2.435,2.435,0,0,1,.37.156A2.182,2.182,0,0,0,7.921.828,3.39,3.39,0,0,0,5.319,0H1.907a.488.488,0,0,0-.482.412L0,9.42a.293.293,0,0,0,.289.339H2.4L2.928,6.4,3.5,2.8Z" transform="translate(0 0)" fill="#fff"/>
    </g>
  </g>
</svg>
