<svg xmlns="http://www.w3.org/2000/svg" width="68.582" height="39.705" viewBox="0 0 68.582 39.705">
  <g id="Visa" transform="translate(-487.209 -2257.647)">
    <rect id="Rectangle_33" data-name="Rectangle 33" width="68.582" height="39.705" rx="3" transform="translate(487.209 2257.647)" fill="#00579f"/>
    <g id="g4158" transform="translate(424.181 2167.275)">
      <path id="polygon9" d="M436.1,120.76h-2.594l1.623-10.033h2.594Z" transform="translate(-341.058 -5.497)" fill="#fff"/>
      <path id="path11" d="M572.961,105.475a6.393,6.393,0,0,0-2.327-.427c-2.562,0-4.366,1.366-4.377,3.319-.021,1.441,1.292,2.241,2.274,2.722,1,.491,1.345.811,1.345,1.249-.01.672-.811.982-1.558.982a5.164,5.164,0,0,1-2.434-.534l-.342-.16-.363,2.252a7.9,7.9,0,0,0,2.893.534c2.722,0,4.494-1.345,4.515-3.426.01-1.142-.683-2.017-2.177-2.732-.907-.459-1.463-.769-1.463-1.238.011-.427.47-.864,1.494-.864a4.408,4.408,0,0,1,1.932.384l.235.107.353-2.166Z" transform="translate(-468.514)" fill="#fff"/>
      <path id="path13" d="M794.536,117.205c.214-.576,1.036-2.807,1.036-2.807-.011.021.213-.587.341-.961l.181.864s.491,2.4.6,2.9Zm3.2-6.479h-2.007a1.28,1.28,0,0,0-1.356.832l-3.853,9.2h2.722l.544-1.5h3.331c.074.352.31,1.5.31,1.5h2.4l-2.093-10.033Z" transform="translate(-686.641 -5.497)" fill="#fff"/>
      <path id="path15" d="M172.24,110.727l-2.541,6.841-.278-1.388a7.679,7.679,0,0,0-3.587-4.205l2.327,8.774h2.743l4.078-10.022H172.24Z" transform="translate(-81.958 -5.497)" fill="#fff"/>
      <path id="path17" d="M85.382,110.727H81.208l-.043.2a8.68,8.68,0,0,1,6.3,5.252l-.907-4.611a1.073,1.073,0,0,0-1.174-.843Z" transform="translate(0 -5.497)" fill="#fff"/>
    </g>
  </g>
</svg>
